<svg width="76" height="76" viewBox="0 0 76 76" fill="none" xmlns="http://www.w3.org/2000/svg">
<path d="M56.4887 7.15576H25.4923C22.204 7.15576 19.0504 8.46203 16.7252 10.7872C14.4 13.1124 13.0938 16.266 13.0938 19.5543V56.75C13.0938 60.0383 14.4 63.1919 16.7252 65.5171C19.0504 67.8422 22.204 69.1485 25.4923 69.1485H56.4887C58.1328 69.1485 59.7096 68.4954 60.8722 67.3328C62.0348 66.1702 62.688 64.5934 62.688 62.9492V13.355C62.688 11.7109 62.0348 10.1341 60.8722 8.97149C59.7096 7.8089 58.1328 7.15576 56.4887 7.15576ZM19.293 19.5543C19.293 17.9102 19.9462 16.3334 21.1088 15.1708C22.2713 14.0082 23.8482 13.355 25.4923 13.355H56.4887V44.3514H25.4923C23.3072 44.3606 21.1652 44.9603 19.293 46.0872V19.5543ZM25.4923 62.9492C23.8482 62.9492 22.2713 62.2961 21.1088 61.1335C19.9462 59.9709 19.293 58.3941 19.293 56.75C19.293 55.1058 19.9462 53.529 21.1088 52.3664C22.2713 51.2038 23.8482 50.5507 25.4923 50.5507H56.4887V62.9492H25.4923ZM31.6916 25.7536H44.0901C44.9122 25.7536 45.7006 25.427 46.2819 24.8457C46.8632 24.2644 47.1898 23.476 47.1898 22.654C47.1898 21.8319 46.8632 21.0435 46.2819 20.4622C45.7006 19.8809 44.9122 19.5543 44.0901 19.5543H31.6916C30.8695 19.5543 30.0811 19.8809 29.4998 20.4622C28.9185 21.0435 28.5919 21.8319 28.5919 22.654C28.5919 23.476 28.9185 24.2644 29.4998 24.8457C30.0811 25.427 30.8695 25.7536 31.6916 25.7536V25.7536Z" fill="white"/>
</svg>
