<svg width="78" height="78" viewBox="0 0 78 78" fill="none" xmlns="http://www.w3.org/2000/svg">
<path d="M32.3335 42.177H45.1165C45.9641 42.177 46.7769 41.8403 47.3762 41.241C47.9756 40.6417 48.3123 39.8289 48.3123 38.9813C48.3123 38.1337 47.9756 37.3209 47.3762 36.7215C46.7769 36.1222 45.9641 35.7855 45.1165 35.7855H32.3335C31.4859 35.7855 30.6731 36.1222 30.0737 36.7215C29.4744 37.3209 29.1377 38.1337 29.1377 38.9813C29.1377 39.8289 29.4744 40.6417 30.0737 41.241C30.6731 41.8403 31.4859 42.177 32.3335 42.177ZM61.0953 10.2195H16.3547C14.1064 10.2369 11.9357 11.044 10.2221 12.4997C8.50848 13.9554 7.36102 15.967 6.98028 18.183C6.59953 20.3989 7.00972 22.6782 8.13915 24.6223C9.26857 26.5665 11.0454 28.0519 13.1589 28.8188V58.1558C13.1589 60.6985 14.169 63.1371 15.967 64.935C17.765 66.733 20.2035 67.7431 22.7462 67.7431H54.7038C57.2465 67.7431 59.685 66.733 61.483 64.935C63.281 63.1371 64.291 60.6985 64.291 58.1558V28.8188C66.4046 28.0519 68.1814 26.5665 69.3109 24.6223C70.4403 22.6782 70.8505 20.3989 70.4697 18.183C70.089 15.967 68.9415 13.9554 67.2279 12.4997C65.5143 11.044 63.3436 10.2369 61.0953 10.2195ZM57.8995 58.1558C57.8995 59.0034 57.5628 59.8162 56.9635 60.4156C56.3642 61.0149 55.5513 61.3516 54.7038 61.3516H22.7462C21.8986 61.3516 21.0858 61.0149 20.4865 60.4156C19.8872 59.8162 19.5505 59.0034 19.5505 58.1558V29.394H57.8995V58.1558ZM61.0953 23.0025H16.3547C15.5071 23.0025 14.6943 22.6658 14.095 22.0665C13.4956 21.4672 13.1589 20.6543 13.1589 19.8068C13.1589 18.9592 13.4956 18.1463 14.095 17.547C14.6943 16.9477 15.5071 16.611 16.3547 16.611H61.0953C61.9429 16.611 62.7557 16.9477 63.355 17.547C63.9544 18.1463 64.291 18.9592 64.291 19.8068C64.291 20.6543 63.9544 21.4672 63.355 22.0665C62.7557 22.6658 61.9429 23.0025 61.0953 23.0025Z" fill="white"/>
</svg>
