<svg width="59" height="66" viewBox="0 0 59 66" fill="none" xmlns="http://www.w3.org/2000/svg">
<path d="M58.0722 32.7758C58.0705 32.2318 57.9183 31.699 57.6323 31.2362C57.3464 30.7735 56.9379 30.399 56.4522 30.1543L38.4257 21.141V9.35901C38.4257 6.95293 37.4699 4.64539 35.7685 2.94404C34.0671 1.24268 31.7596 0.286865 29.3535 0.286865C26.9474 0.286865 24.6399 1.24268 22.9385 2.94404C21.2372 4.64539 20.2814 6.95293 20.2814 9.35901V21.141L2.25489 30.1543C1.76914 30.399 1.36065 30.7735 1.0747 31.2362C0.788752 31.699 0.636516 32.2318 0.634868 32.7758V42.5843C0.63087 43.0641 0.744168 43.5377 0.964908 43.9638C1.18565 44.3898 1.50714 44.7555 1.90143 45.0291C2.29348 45.2977 2.7447 45.4674 3.21658 45.5238C3.68845 45.5803 4.16697 45.5217 4.6113 45.3531L20.2814 39.4621V50.4488L14.9206 52.2161C14.3355 52.4137 13.8274 52.7902 13.468 53.2923C13.1085 53.7944 12.916 54.3968 12.9176 55.0143V62.2308C12.9192 62.6205 12.9982 63.006 13.1499 63.365C13.3015 63.724 13.523 64.0493 13.8013 64.3221C14.3499 64.8663 15.0904 65.173 15.8631 65.1763H42.8734C43.6546 65.1763 44.4038 64.866 44.9562 64.3136C45.5086 63.7612 45.8189 63.012 45.8189 62.2308V54.867C45.8205 54.2495 45.628 53.6471 45.2685 53.145C44.9091 52.6429 44.401 52.2664 43.8159 52.0688L38.4257 50.4488V39.4915L54.0957 45.3825C54.5401 45.5511 55.0186 45.6097 55.4905 45.5533C55.9623 45.4969 56.4136 45.3271 56.8056 45.0585C57.1999 44.785 57.5214 44.4193 57.7421 43.9932C57.9629 43.5671 58.0762 43.0936 58.0722 42.6137V32.7758ZM36.5405 32.4812C36.0922 32.3075 35.6081 32.2463 35.1306 32.3027C34.6531 32.3592 34.1967 32.5317 33.8012 32.8052C33.4111 33.0759 33.0921 33.4369 32.8716 33.8575C32.651 34.278 32.5354 34.7457 32.5347 35.2205V52.4223C32.5351 53.0434 32.7319 53.6485 33.0969 54.1511C33.462 54.6536 33.9765 55.0279 34.5671 55.2205L39.8984 56.9878V59.2853H18.7792V56.9878L24.1105 55.2205C24.7011 55.0279 25.2156 54.6536 25.5806 54.1511C25.9457 53.6485 26.1425 53.0434 26.1429 52.4223V35.2205C26.1421 34.7457 26.0266 34.278 25.806 33.8575C25.5855 33.4369 25.2665 33.0759 24.8764 32.8052C24.4809 32.5317 24.0245 32.3592 23.547 32.3027C23.0695 32.2463 22.5854 32.3075 22.137 32.4812L6.49642 38.3722V34.602L24.4934 25.5887C24.9847 25.348 25.3992 24.9753 25.6906 24.5123C25.9819 24.0493 26.1385 23.5143 26.1429 22.9672V9.44738C26.1429 8.60369 26.4781 7.79455 27.0747 7.19797C27.6712 6.60139 28.4804 6.26624 29.3241 6.26624C30.1678 6.26624 30.9769 6.60139 31.5735 7.19797C32.1701 7.79455 32.5052 8.60369 32.5052 9.44738V22.9672C32.5096 23.5143 32.6662 24.0493 32.9576 24.5123C33.2489 24.9753 33.6634 25.348 34.1547 25.5887L52.1517 34.602V38.3428L36.5405 32.4812Z" fill="white"/>
</svg>
